<svg width="848" height="406" viewBox="0 0 848 406" fill="none" xmlns="http://www.w3.org/2000/svg">
<g opacity="0.05" clip-path="url(#clip0_102_15)">
<path d="M791.952 -195.234C755.763 -255.252 705.756 -302.118 641.93 -335.94C578.136 -369.747 505.741 -386.665 424.825 -386.665C343.908 -386.665 271.251 -369.762 206.947 -335.94C142.643 -302.133 92.4196 -255.252 56.2302 -195.234C20.0254 -135.262 1.94617 -67.1545 1.94617 8.99526C1.94617 85.145 20.0254 153.252 56.2302 213.27C92.4351 273.242 142.643 320.155 206.947 353.931C271.251 387.783 343.862 404.656 424.825 404.656C505.788 404.656 578.136 387.783 641.93 353.931C705.756 320.155 755.763 273.242 791.952 213.27C828.157 153.252 846.237 85.1913 846.237 8.99526C846.237 -67.2008 828.157 -135.262 791.952 -195.234Z" stroke="white" stroke-width="1.44917" stroke-miterlimit="10"/>
<path d="M730.721 -166.938C699.58 -218.636 656.489 -258.972 601.541 -288.101C546.593 -317.261 484.235 -331.818 414.511 -331.818C344.788 -331.818 282.229 -317.261 226.879 -288.101C171.453 -258.972 128.239 -218.636 97.0669 -166.938C65.8644 -115.271 50.3171 -56.6266 50.3171 8.99525C50.3171 74.6171 65.8644 133.215 97.0669 184.898C128.239 236.595 171.468 276.963 226.879 306.092C282.229 335.221 344.773 349.747 414.511 349.747C484.25 349.747 546.593 335.221 601.541 306.092C656.489 276.963 699.58 236.595 730.721 184.898C761.893 133.2 777.471 74.5862 777.471 8.99525C777.471 -56.5957 761.893 -115.286 730.721 -166.938ZM524.515 75.6359C523.249 147.494 468.904 182.459 418.973 184.543C417.584 184.604 416.133 184.666 414.712 184.666H413.014C411.593 184.666 410.142 184.604 408.753 184.543C358.822 182.459 304.477 147.51 303.211 75.6359L303.149 71.6377H361.879C366.604 71.6377 370.448 67.794 370.448 63.0703C370.448 58.3467 366.604 54.5338 361.879 54.5338H303.211V17.5936H362.003C364.936 17.5936 367.206 16.3586 368.719 13.935C370.479 10.9403 370.541 7.03477 368.904 4.16352C367.515 1.80169 365.06 0.474127 362.126 0.474127H303.211V-36.4661H361.308C366.187 -36.4661 370.294 -40.1864 370.448 -44.7865C370.51 -47.1793 369.63 -49.4176 367.993 -51.0539C366.388 -52.6902 364.18 -53.6318 361.879 -53.6318H303.149L303.211 -57.5991C304.477 -129.118 358.375 -164.159 407.965 -166.459C409.54 -166.583 411.022 -166.614 412.504 -166.614H415.222C416.704 -166.614 418.186 -166.583 419.668 -166.459C469.351 -164.159 523.249 -129.102 524.515 -57.5991L524.577 -53.6318H465.847C463.546 -53.6318 461.338 -52.6902 459.702 -51.023C458.096 -49.4176 457.216 -47.1793 457.278 -44.8174C457.432 -40.1864 461.539 -36.4661 466.418 -36.4661H524.515V0.474127H465.816C462.635 0.474127 460.211 1.8017 458.853 4.10178C457.185 7.03478 457.247 10.9403 458.976 13.8733C460.52 16.3586 462.79 17.5936 465.723 17.5936H524.515V54.5338H465.847C461.122 54.5338 457.278 58.3776 457.278 63.0703C457.278 67.7631 461.122 71.6377 465.847 71.6377H524.577L524.515 75.6359Z" stroke="white" stroke-width="0.999426" stroke-miterlimit="10"/>
</g>
<defs>
<clipPath id="clip0_102_15">
<rect width="846.514" height="793.544" fill="white" transform="translate(0.834595 -387.777)"/>
</clipPath>
</defs>
</svg>
